<?xml version="1.0" standalone="no"?>
<!DOCTYPE svg PUBLIC "-//W3C//DTD SVG 20010904//EN"
 "http://www.w3.org/TR/2001/REC-SVG-20010904/DTD/svg10.dtd">
<svg version="1.0" xmlns="http://www.w3.org/2000/svg"
 width="820.000000pt" height="820.000000pt" viewBox="0 0 820.000000 820.000000"
 preserveAspectRatio="xMidYMid meet">
<metadata>
Created by potrace 1.11, written by Peter Selinger 2001-2013
</metadata>
<g transform="translate(0.000000,820.000000) scale(0.100000,-0.100000)"
fill="#000000" stroke="none">
<path d="M1200 7200 l0 -100 -100 0 -100 0 0 -400 0 -400 -100 0 -100 0 0
-100 0 -100 -100 0 -100 0 0 -100 0 -100 -200 0 -200 0 0 -100 0 -100 -100 0
-100 0 0 -300 0 -300 100 0 100 0 0 -100 0 -100 800 0 800 0 0 -300 0 -300
100 0 100 0 0 -1300 0 -1300 -100 0 -100 0 0 -200 0 -200 -100 0 -100 0 0
-100 0 -100 100 0 100 0 0 -100 0 -100 300 0 300 0 0 100 0 100 200 0 200 0 0
100 0 100 100 0 100 0 0 200 0 200 100 0 100 0 0 600 0 600 1400 0 1400 0 0
-100 0 -100 200 0 200 0 0 -200 0 -200 100 0 100 0 0 -300 0 -300 -100 0 -100
0 0 -200 0 -200 -200 0 -200 0 0 -100 0 -100 200 0 200 0 0 -100 0 -100 300 0
300 0 0 100 0 100 200 0 200 0 0 100 0 100 100 0 100 0 0 200 0 200 100 0 100
0 0 800 0 800 -100 0 -100 0 0 700 0 700 100 0 100 0 0 200 0 200 100 0 100 0
0 100 0 100 100 0 100 0 0 700 0 700 -100 0 -100 0 0 100 0 100 -100 0 -100 0
0 -300 0 -300 -100 0 -100 0 0 -100 0 -100 -100 0 -100 0 0 -100 0 -100 -200
0 -200 0 0 -100 0 -100 -100 0 -100 0 0 -200 0 -200 -1700 0 -1700 0 0 200 0
200 -200 0 -200 0 0 100 0 100 -100 0 -100 0 0 400 0 400 100 0 100 0 0 300 0
300 -300 0 -300 0 0 -100 0 -100 -100 0 -100 0 0 -100 0 -100 -200 0 -200 0 0
100 0 100 -100 0 -100 0 0 100 0 100 -200 0 -200 0 0 -100z m400 -300 l0 -200
300 0 300 0 0 100 0 100 100 0 100 0 0 100 0 100 200 0 200 0 0 -200 0 -200
-200 0 -200 0 0 -400 0 -400 200 0 200 0 0 -100 0 -100 100 0 100 0 0 -200 0
-200 200 0 200 0 0 -100 0 -100 400 0 400 0 0 -100 0 -100 100 0 100 0 0 -100
0 -100 200 0 200 0 0 -200 0 -200 600 0 600 0 0 200 0 200 200 0 200 0 0 200
0 200 200 0 200 0 0 100 0 100 100 0 100 0 0 200 0 200 200 0 200 0 0 100 0
100 100 0 100 0 0 100 0 100 100 0 100 0 0 100 0 100 100 0 100 0 0 -500 0
-500 -100 0 -100 0 0 -100 0 -100 -100 0 -100 0 0 -200 0 -200 -100 0 -100 0
0 -700 0 -700 100 0 100 0 0 -800 0 -800 -100 0 -100 0 0 -200 0 -200 -200 0
-200 0 0 -100 0 -100 -300 0 -300 0 0 100 0 100 100 0 100 0 0 200 0 200 100
0 100 0 0 300 0 300 -100 0 -100 0 0 200 0 200 -100 0 -100 0 0 100 0 100
-200 0 -200 0 0 100 0 100 -1400 0 -1400 0 0 -100 0 -100 -100 0 -100 0 0
-600 0 -600 -100 0 -100 0 0 -200 0 -200 -200 0 -200 0 0 -100 0 -100 -300 0
-300 0 0 100 0 100 100 0 100 0 0 200 0 200 100 0 100 0 0 700 0 700 100 0
100 0 0 100 0 100 200 0 200 0 0 400 0 400 -200 0 -200 0 0 100 0 100 -200 0
-200 0 0 300 0 300 -100 0 -100 0 0 100 0 100 -800 0 -800 0 0 300 0 300 200
0 200 0 0 100 0 100 100 0 100 0 0 100 0 100 100 0 100 0 0 100 0 100 100 0
100 0 0 400 0 400 200 0 200 0 0 -200z"/>
<path d="M1600 6200 l0 -100 100 0 100 0 0 100 0 100 -100 0 -100 0 0 -100z"/>
</g>
</svg>
